<?xml version="1.0" encoding="UTF-8"?>
<svg version="1.1" xmlns="http://www.w3.org/2000/svg" width="64" height="64">
<path d="M0 0 C8.12960214 4.73448094 13.6221835 12.10757385 16.0390625 21.1875 C17.03240947 32.22982211 16.17079752 41.04892226 9.8515625 50.4375 C1.62134704 58.48482178 -6.41000606 61.59341073 -17.84130859 61.55541992 C-26.64570016 61.34223119 -33.72681797 58.56330407 -39.9609375 52.1875 C-47.4340414 42.48683628 -49.21034687 33.20504638 -47.9609375 21.1875 C-45.71251008 11.68333653 -40.32170762 5.79609837 -32.33984375 0.484375 C-22.83905138 -4.6950389 -9.73342797 -4.68767099 0 0 Z " fill="#1EA0C3" transform="translate(47.9609375,2.8125)"/>
<path d="M0 0 C7.92 0 15.84 0 24 0 C20.66666667 6.66666667 17.33333333 13.33333333 14 20 C6.08 20 -1.84 20 -10 20 C-6.66666667 13.33333333 -3.33333333 6.66666667 0 0 Z " fill="#FBFDFE" transform="translate(25,22)"/>
</svg>
